PathFileType	4	(X/Y/Z)	/Volumes/GoogleDrive/My Drive/Research/Stanford/Projects/Digital Athlete Project/Sprinting/Sprint Simulation/sprinter/subjects/JA1/experimental_data/TRC/run0500cms.trc
DataRate	CameraRate	NumFrames	NumMarkers	Units	OrigDataRate	OrigDataStartFrame	OrigNumFrames
250.000000	250.000000	4	53	mm	250.000000	498	569
Frame#	Time	C7			RSH			LSH			MAN			T7			LARM			LELB			LFOREARM			LWR			RARM			RELB			RFOREARM			RWR			RASI			LASI			SACR			P1			P2			P3			LTHLP			LTHLD			LTHAP			LLEPI			LPAT			LTIAP			LTIAD			LTILAT			LLMAL			LHEEL			LMFS			LMFL			LP1MT			LTOE			LP5MT			RTHLP			RTHLD			RTHAP			RTHAD			RLEPI			RPAT			RTIAP			RTIAD			RTILAT			RLMAL			RHEEL			RMFS			RMFL			RP1MT			RTOE			RP5MT			LTHAD			x52			x53			
		X1	Y1	Z1	X2	Y2	Z2	X3	Y3	Z3	X4	Y4	Z4	X5	Y5	Z5	X6	Y6	Z6	X7	Y7	Z7	X8	Y8	Z8	X9	Y9	Z9	X10	Y10	Z10	X11	Y11	Z11	X12	Y12	Z12	X13	Y13	Z13	X14	Y14	Z14	X15	Y15	Z15	X16	Y16	Z16	X17	Y17	Z17	X18	Y18	Z18	X19	Y19	Z19	X20	Y20	Z20	X21	Y21	Z21	X22	Y22	Z22	X23	Y23	Z23	X24	Y24	Z24	X25	Y25	Z25	X26	Y26	Z26	X27	Y27	Z27	X28	Y28	Z28	X29	Y29	Z29	X30	Y30	Z30	X31	Y31	Z31	X32	Y32	Z32	X33	Y33	Z33	X34	Y34	Z34	X35	Y35	Z35	X36	Y36	Z36	X37	Y37	Z37	X38	Y38	Z38	X39	Y39	Z39	X40	Y40	Z40	X41	Y41	Z41	X42	Y42	Z42	X43	Y43	Z43	X44	Y44	Z44	X45	Y45	Z45	X46	Y46	Z46	X47	Y47	Z47	X48	Y48	Z48	X49	Y49	Z49	X50	Y50	Z50	X51	Y51	Z51	X52	Y52	Z52	X53	Y53	Z53	
498	1.992000	4777.951172	1537.659058	192.872055	4802.133789	1530.671143	363.939606	4801.018555	1518.525146	40.039715	4914.099121	1440.160889	220.716827	4713.176758	1345.183594	193.147217	4806.051758	1325.967529	-56.213589	4813.489746	1189.794189	-82.425659	4918.297852	1255.466797	-12.396894	5003.666016	1321.743286	44.300140	4656.839844	1446.737061	439.454590	4532.938965	1388.831909	472.008698	4551.440430	1242.488770	476.692200	4559.512207	1109.476807	464.553680	4900.436523	1062.752930	294.986969	4880.902832	1038.862549	88.029442	4714.283691	1109.697510	221.992142	4698.877930	1083.851318	170.744370	4699.720215	1078.916382	275.886932	4665.923340	1028.854614	223.966370	4676.953125	782.705566	39.205254	4631.655762	679.593018	59.596386	4797.323242	724.578796	114.363632	4570.215332	580.389465	91.211296	4639.150391	511.815186	145.922867	4426.942383	477.591156	169.705917	4295.004883	434.240723	178.101349	4340.538086	500.704773	103.675766	4140.393555	412.648651	138.379013	4110.371094	471.579987	189.234909	4151.725586	307.338989	190.006256	4106.497559	331.148468	135.960114	4111.483398	245.826935	238.380554	4121.347656	215.854080	197.098938	4064.829834	264.226257	123.507118	4919.839355	829.352539	406.046265	4997.891602	748.190186	393.353241	5028.090820	874.913025	323.016144	5088.702637	799.890015	320.935638	5082.537598	624.654602	361.982330	5164.267578	668.109192	314.273468	5150.755859	421.831421	273.476135	5162.789551	296.101318	256.665375	5116.100586	399.018890	356.710144	5165.580078	165.726410	307.863831	5103.515625	123.136078	258.814575	5269.587402	183.820206	262.279053	5236.463379	135.782578	311.753143	5333.356445	152.041458	214.396454	5354.605469	171.525208	256.150574	5317.398438	107.444885	330.169586	4732.818848	626.657104	127.096710	4564.025879	1035.091797	457.765411	5047.054199	1355.428345	73.116417
499	1.996000	4799.148926	1538.111206	193.274963	4823.502930	1530.857422	364.430084	4822.431152	1519.209106	40.438129	4935.223633	1440.424683	220.938934	4734.044434	1345.842896	193.557312	4825.453613	1327.010620	-56.229336	4831.298828	1190.747192	-82.624504	4937.844238	1253.459473	-12.465969	5025.015137	1317.194946	44.589825	4678.149902	1446.347290	440.067780	4554.419434	1388.068359	472.471039	4573.577148	1241.827148	477.413544	4582.025879	1108.929565	465.470062	4921.898926	1063.493774	294.412567	4902.100098	1039.591064	87.766815	4735.333984	1109.783081	221.972916	4720.245117	1083.800781	170.662338	4720.779785	1078.819702	275.872803	4690.240234	1027.920410	223.466690	4699.892578	782.293762	39.334610	4654.918945	679.023682	60.031334	4820.346191	724.840515	114.871445	4594.488281	579.993958	91.999664	4662.454102	510.259460	146.490784	4448.332031	481.052460	169.787262	4314.866211	442.369720	178.021973	4361.804199	508.395020	103.152245	4159.391602	426.649353	136.308441	4131.685059	485.613953	189.339233	4168.019043	320.417206	189.141861	4123.367676	345.750488	135.174011	4125.861328	259.853394	237.005081	4134.774902	229.867432	195.532089	4080.291260	280.427246	122.031425	4939.580078	826.719604	406.418579	5015.260254	743.938965	394.026093	5047.533203	869.553223	322.603271	5106.501953	793.308960	320.376862	5098.499023	619.000061	361.850647	5180.217285	661.788208	313.832550	5172.943359	418.044891	273.487823	5189.822266	292.798126	256.871796	5138.324219	394.570526	356.787964	5197.195312	162.643524	308.322083	5137.059570	118.082558	258.903717	5300.889648	184.318298	263.078094	5269.460449	134.563339	311.902893	5365.447266	155.487625	214.604813	5386.148926	175.338821	256.529755	5351.546387	108.667053	329.800262	4756.334961	626.515991	127.494324	4586.750488	1034.608521	458.790863	5069.319824	1349.588501	73.588440
500	2.000000	4820.486816	1538.323120	193.930634	4844.996094	1530.776855	364.946686	4844.019043	1519.626709	40.932465	4956.228027	1440.322266	221.283157	4754.840820	1346.331055	194.080368	4844.628906	1327.873901	-56.233135	4848.917969	1191.608765	-82.950073	4957.357422	1251.006958	-12.685850	5046.662598	1311.896729	44.722469	4699.438965	1445.670044	440.737579	4576.322266	1386.994751	473.477234	4595.908203	1240.781006	478.241241	4604.838867	1107.957153	466.520752	4943.218750	1064.120361	293.859283	4923.482910	1040.247192	87.536156	4756.378906	1109.567017	222.004242	4741.441895	1083.569458	170.647461	4741.872559	1078.581299	275.777893	4712.115723	1027.431152	223.595322	4722.691895	781.709351	39.559929	4678.271484	678.203674	60.456837	4843.587402	724.937500	115.198418	4618.867188	579.370972	92.846283	4686.099121	508.491608	146.974487	4470.072266	484.502838	170.209442	4335.449707	450.332703	177.857925	4385.576172	514.392151	104.893860	4179.920410	439.443542	136.332016	4153.709961	499.752930	189.659698	4184.933594	333.384644	188.114899	4141.056641	360.420837	134.271408	4140.876953	273.828156	235.615448	4148.867188	243.990768	193.866287	4095.993652	296.741150	120.712479	4958.264160	824.103760	407.231018	5032.440430	739.511536	394.894806	5067.190430	864.161377	322.202667	5124.459961	786.698242	319.858521	5114.807617	613.771301	361.819366	5196.370117	655.410400	313.133667	5194.874023	414.618744	273.715942	5215.997070	290.072327	257.294281	5159.432617	390.433167	356.907928	5227.654785	160.112610	308.907166	5169.057617	114.006081	259.109375	5330.874023	185.021698	263.921295	5301.136719	133.697388	312.153656	5396.139648	158.994858	214.773849	5416.257813	179.212357	256.805023	5384.155273	110.015015	329.362335	4779.853027	626.156555	128.060608	4609.833496	1033.677368	459.966217	5092.051758	1342.843994	73.900253
501	2.004000	4841.735840	1538.345581	194.529114	4866.445801	1530.532715	365.484131	4865.368652	1519.913940	41.411221	4977.327148	1440.302856	221.347214	4775.705078	1346.593506	194.564651	4863.625977	1328.632080	-56.176918	4866.314941	1192.349243	-83.196968	4976.784180	1248.094116	-13.014985	5068.326660	1305.830322	44.750717	4720.924316	1444.634888	441.528748	4598.263672	1385.408936	474.444824	4618.613281	1239.361816	479.206726	4628.076172	1106.666504	467.688080	4964.532715	1064.478149	293.363129	4944.679688	1040.709351	87.279465	4777.400879	1109.435669	221.960968	4762.620117	1083.018188	170.635818	4762.774902	1078.121338	275.634308	4733.784668	1026.766846	223.634781	4745.465820	780.931335	39.810589	4701.962402	677.083862	60.842979	4866.894531	724.838501	115.437386	4643.782227	578.367126	93.681648	4710.008789	506.493744	147.502060	4492.254395	487.785400	170.587524	4356.515137	458.368225	178.171631	4408.874023	520.766418	105.338661	4201.142090	452.347900	136.264938	4176.613281	513.707764	189.993118	4202.746094	345.612030	186.435043	4159.639160	375.628479	133.516708	4156.330078	287.933441	233.918869	4163.450195	258.242554	191.847992	4112.884277	313.253693	118.916977	4978.109863	821.649719	408.557220	5049.469238	734.616211	396.060425	5086.660156	858.618286	321.802307	5142.157227	780.047180	319.362305	5131.563477	608.901428	361.804901	5212.697754	649.043701	312.250336	5216.593750	411.701416	274.317322	5241.523926	287.938660	257.950806	5180.096680	386.331207	356.911285	5256.718262	158.025665	309.405304	5199.864746	110.628723	259.277191	5359.606445	185.748871	264.742889	5331.280273	133.139709	312.376221	5424.961914	162.219009	214.936630	5444.835938	182.719696	257.056213	5415.121582	111.294540	328.954559	4806.488770	626.245056	128.480942	4633.368164	1032.458618	461.246460	5114.853027	1335.174805	74.110146
